<svg width="23" height="22" viewBox="0 0 23 22" fill="none" xmlns="http://www.w3.org/2000/svg">
<path d="M9.58 1C4.97 1.936 1.5 6.012 1.5 10.899C1.5 16.478 6.022 21 11.601 21C16.488 21 20.564 17.53 21.5 12.92" stroke="#7C7C7C" stroke-width="2" stroke-linecap="round" stroke-linejoin="round"/>
<path d="M18.438 17C18.8099 16.9215 19.1678 16.7877 19.5 16.603M14.188 16.341C14.7847 16.601 15.357 16.7943 15.905 16.921M10.355 13.948C10.768 14.238 11.21 14.586 11.64 14.886M2.5 12.826C2.822 12.669 3.17 12.488 3.563 12.333M5.95 12C6.512 12.062 7.142 12.223 7.856 12.523M17.5 6.5C17.5 6.10218 17.342 5.72064 17.0607 5.43934C16.7794 5.15804 16.3978 5 16 5C15.6022 5 15.2206 5.15804 14.9393 5.43934C14.658 5.72064 14.5 6.10218 14.5 6.5C14.5 6.89782 14.658 7.27936 14.9393 7.56066C15.2206 7.84196 15.6022 8 16 8C16.3978 8 16.7794 7.84196 17.0607 7.56066C17.342 7.27936 17.5 6.89782 17.5 6.5Z" stroke="#7C7C7C" stroke-width="2" stroke-linecap="round" stroke-linejoin="round"/>
<path d="M16.9881 12.62C16.7179 12.8658 16.3654 13.0014 16.0001 13C15.6348 13.0014 15.2823 12.8658 15.0121 12.62C12.5851 10.376 9.33312 7.868 10.9191 4.228C11.7771 2.259 13.8351 1 16.0001 1C18.1651 1 20.2231 2.26 21.0801 4.228C22.6651 7.864 19.4201 10.383 16.9881 12.62Z" stroke="#7C7C7C" stroke-width="2" stroke-linecap="round" stroke-linejoin="round"/>
</svg>
