<svg width="21" height="22" viewBox="0 0 21 22" fill="none" xmlns="http://www.w3.org/2000/svg">
<path d="M14.5 3.00201C16.675 3.01401 17.853 3.11101 18.621 3.87901C19.5 4.75801 19.5 6.17201 19.5 9.00001V15C19.5 17.829 19.5 19.243 18.621 20.122C17.743 21 16.328 21 13.5 21H7.5C4.672 21 3.257 21 2.379 20.122C1.5 19.242 1.5 17.829 1.5 15V9.00001C1.5 6.17201 1.5 4.75801 2.379 3.87901C3.147 3.11101 4.325 3.01401 6.5 3.00201" stroke="#2E8896" stroke-width="2"/>
<path d="M9 13H15.5M5.5 13H6M5.5 9.5H6M5.5 16.5H6M9 9.5H15.5M9 16.5H15.5" stroke="#2E8896" stroke-width="2" stroke-linecap="round"/>
<path d="M6.5 2.5C6.5 2.10218 6.65804 1.72064 6.93934 1.43934C7.22064 1.15804 7.60218 1 8 1H13C13.3978 1 13.7794 1.15804 14.0607 1.43934C14.342 1.72064 14.5 2.10218 14.5 2.5V3.5C14.5 3.89782 14.342 4.27936 14.0607 4.56066C13.7794 4.84196 13.3978 5 13 5H8C7.60218 5 7.22064 4.84196 6.93934 4.56066C6.65804 4.27936 6.5 3.89782 6.5 3.5V2.5Z" stroke="#2E8896" stroke-width="2"/>
</svg>
